<svg xmlns="http://www.w3.org/2000/svg" version="1.1" xmlns:xlink="http://www.w3.org/1999/xlink" xmlns:svgjs="http://svgjs.com/svgjs" width="1440" height="560" preserveAspectRatio="none" viewBox="0 0 1440 560"><g mask="url(&quot;#SvgjsMask1152&quot;)" fill="none"><rect width="1440" height="560" x="0" y="0" fill="rgba(8, 21, 43, 1)"></rect><path d="M0,619.98C112.277,599.898,176.802,484.989,278.519,433.384C396.982,373.283,594.102,417.164,643.119,293.702C693.124,167.751,520.454,59.94,477.859,-68.706C445.389,-166.771,491.007,-288.78,424.174,-367.549C357.276,-446.395,238.513,-445.839,137.842,-469.447C42.804,-491.734,-52.617,-525.423,-147.271,-501.559C-243.684,-477.251,-320.369,-409.048,-388.597,-336.721C-459.226,-261.848,-528.986,-180.008,-546.308,-78.547C-563.825,24.058,-514.895,121.608,-483.806,220.947C-448.124,334.963,-443.031,469.942,-350.866,545.958C-256.748,623.585,-120.095,641.461,0,619.98" fill="#061020"></path><path d="M1440 1073.237C1543.361 1085.137 1655.274 1087.4180000000001 1742.931 1031.3690000000001 1830.6480000000001 975.2819999999999 1890.458 876.425 1908.242 773.8389999999999 1924.539 679.832 1841.934 598.399 1834.48 503.282 1826.216 397.826 1917.3809999999999 284.258 1862.775 193.663 1809.432 105.16399999999999 1683.055 93.755 1580.419 81.77800000000002 1488.823 71.089 1403.415 108.59199999999998 1313.617 129.58100000000002 1217.672 152.00599999999997 1102.77 137.52800000000002 1035.176 209.21800000000002 967.373 281.129 963.13 394.119 971.323 492.61400000000003 978.5419999999999 579.409 1043.163 645.4929999999999 1078.1 725.274 1113.7649999999999 806.719 1114.716 904.799 1178.808 966.423 1248.0149999999999 1032.964 1344.623 1062.257 1440 1073.237" fill="#0a1a36"></path></g><defs><mask id="SvgjsMask1152"><rect width="1440" height="560" fill="#ffffff"></rect></mask></defs></svg>